ply
format ascii 1.0
comment Created by Blender 2.71 (sub 0) - www.blender.org, source file: 'Racing Tire ROBLOXImport.blend'
element vertex 114
property float x
property float y
property float z
property float nx
property float ny
property float nz
property float s
property float t
element face 96
property list uchar uint vertex_indices
end_header
1.324897 -0.782153 1.259000 -0.708029 0.706168 0.000000 0.283797 1.030940
1.277876 -0.829298 1.159170 -0.708029 0.706168 0.000000 0.350361 0.931089
1.264964 -0.842245 1.174170 -0.708029 0.706168 0.000000 0.368649 0.946082
1.298083 -0.809038 1.145170 -0.708029 0.706168 0.000000 0.321744 0.917093
1.324876 -0.782175 1.139000 -0.708029 0.706168 0.000000 0.283797 0.910935
1.351675 -0.755305 1.145150 -0.708029 0.706168 0.000000 0.245849 0.917093
1.371885 -0.735040 1.159140 -0.708029 0.706168 0.000000 0.217233 0.931089
1.384808 -0.722083 1.174130 -0.708029 0.706168 0.000000 0.198944 0.946082
1.395394 -0.711470 1.192420 -0.708029 0.706168 0.000000 0.183951 0.964371
1.384808 -0.722083 1.174130 -0.708029 0.706168 0.000000 0.198944 0.946082
1.405280 -0.701557 1.221030 -0.708029 0.706168 0.000000 0.169955 0.992988
1.409637 -0.697189 1.258980 -0.708029 0.706168 0.000000 0.163797 1.030940
1.405294 -0.701543 1.296930 -0.708029 0.706168 0.000000 0.169955 1.068880
1.395415 -0.711448 1.325550 -0.708029 0.706168 0.000000 0.183951 1.097500
1.384830 -0.722062 1.343840 -0.708029 0.706168 0.000000 0.198944 1.115790
1.371921 -0.735005 1.358830 -0.708029 0.706168 0.000000 0.217233 1.130780
1.384830 -0.722062 1.343840 -0.708029 0.706168 0.000000 0.198944 1.115790
1.351710 -0.755269 1.372840 -0.708029 0.706168 0.000000 0.245849 1.144780
1.324918 -0.782132 1.379000 -0.708029 0.706168 0.000000 0.283797 1.150940
1.298119 -0.809002 1.372850 -0.708029 0.706168 0.000000 0.321744 1.144780
1.277907 -0.829267 1.358860 -0.708029 0.706168 0.000000 0.350361 1.130780
1.264990 -0.842219 1.343870 -0.708029 0.706168 0.000000 0.368649 1.115790
1.254399 -0.852838 1.325590 -0.708029 0.706168 0.000000 0.383643 1.097500
1.264990 -0.842219 1.343870 -0.708029 0.706168 0.000000 0.368649 1.115790
1.244511 -0.862752 1.296980 -0.708029 0.706168 0.000000 0.397639 1.068880
1.240157 -0.867118 1.259030 -0.708029 0.706168 0.000000 0.403797 1.030940
1.244500 -0.862763 1.221080 -0.708029 0.706168 0.000000 0.397639 0.992988
1.254378 -0.852858 1.192460 -0.708029 0.706168 0.000000 0.383643 0.964371
1.264964 -0.842245 1.174170 -0.708029 0.706168 0.000000 0.368649 0.946082
1.321633 -0.898712 1.343870 -0.545915 -0.547380 0.634266 0.243797 1.150940
1.264990 -0.842219 1.343870 -0.545915 -0.547380 0.634266 0.163797 1.150940
1.311042 -0.909332 1.325590 -0.594073 -0.595660 0.540544 0.243797 1.110940
1.254399 -0.852838 1.325590 -0.594073 -0.595660 0.540544 0.163797 1.110940
1.301154 -0.919245 1.296980 -0.672903 -0.674673 0.303232 0.243797 1.070940
1.244511 -0.862752 1.296980 -0.672903 -0.674673 0.303232 0.163797 1.070940
1.296800 -0.923611 1.259030 -0.706168 -0.708029 0.000183 0.243797 1.030940
1.240157 -0.867118 1.259030 -0.706168 -0.708029 0.000183 0.163797 1.030940
1.301143 -0.919257 1.221080 -0.672994 -0.674795 -0.302805 0.243797 0.990935
1.244500 -0.862763 1.221080 -0.672994 -0.674795 -0.302805 0.163797 0.990935
1.311022 -0.909352 1.192460 -0.594287 -0.595843 -0.540117 0.243797 0.950935
1.254378 -0.852858 1.192460 -0.594287 -0.595843 -0.540117 0.163797 0.950935
1.321607 -0.898739 1.174170 -0.546159 -0.547594 -0.633869 0.243797 0.910935
1.264964 -0.842245 1.174170 -0.546159 -0.547594 -0.633869 0.163797 0.910935
1.264990 -0.842219 1.343870 -0.447584 -0.448775 0.773461 0.243797 1.150940
1.321633 -0.898712 1.343870 -0.447584 -0.448775 0.773461 0.163797 1.150940
1.277907 -0.829267 1.358860 -0.381390 -0.382397 0.841578 0.243797 1.110940
1.334550 -0.885761 1.358860 -0.381390 -0.382397 0.841578 0.163797 1.110940
1.298119 -0.809002 1.372850 -0.213843 -0.214393 0.953032 0.243797 1.070940
1.354762 -0.865496 1.372850 -0.213813 -0.214393 0.953032 0.163797 1.070940
1.324918 -0.782132 1.379000 0.000092 0.000092 0.999969 0.243797 1.030940
1.381561 -0.838626 1.379000 0.000092 0.000092 1.000000 0.163797 1.030940
1.351710 -0.755269 1.372840 0.214118 0.214698 0.952910 0.243797 0.990935
1.408353 -0.811763 1.372840 0.214118 0.214698 0.952910 0.163797 0.990935
1.371921 -0.735005 1.358830 0.381664 0.382672 0.841334 0.243797 0.950935
1.428564 -0.791499 1.358830 0.381664 0.382672 0.841334 0.163797 0.950935
1.384830 -0.722062 1.343840 0.447768 0.448958 0.773247 0.243797 0.910935
1.441473 -0.778556 1.343840 0.447768 0.448958 0.773247 0.163797 0.910935
1.381540 -0.838647 1.259000 0.708029 -0.706168 0.000000 0.283797 1.030940
1.334550 -0.885761 1.358860 0.708029 -0.706168 0.000000 0.217233 1.130780
1.321633 -0.898712 1.343870 0.708029 -0.706168 0.000000 0.198944 1.115790
1.354762 -0.865496 1.372850 0.708029 -0.706168 0.000000 0.245849 1.144780
1.381561 -0.838626 1.379000 0.708029 -0.706168 0.000000 0.283797 1.150940
1.408353 -0.811763 1.372840 0.708029 -0.706168 0.000000 0.321744 1.144780
1.428564 -0.791499 1.358830 0.708029 -0.706168 0.000000 0.350361 1.130780
1.441473 -0.778556 1.343840 0.708029 -0.706137 0.000000 0.368649 1.115790
1.452058 -0.767942 1.325550 0.708029 -0.706168 0.000000 0.383643 1.097500
1.441473 -0.778556 1.343840 0.708029 -0.706168 0.000000 0.368649 1.115790
1.461937 -0.758037 1.296930 0.708029 -0.706168 0.000000 0.397639 1.068880
1.466280 -0.753682 1.258980 0.708029 -0.706168 0.000000 0.403797 1.030940
1.461923 -0.758051 1.221030 0.708029 -0.706168 0.000000 0.397639 0.992988
1.452037 -0.767963 1.192420 0.708029 -0.706168 0.000000 0.383643 0.964371
1.441452 -0.778577 1.174130 0.708029 -0.706168 0.000000 0.368649 0.946082
1.428529 -0.791534 1.159140 0.708029 -0.706168 0.000000 0.350361 0.931089
1.441452 -0.778577 1.174130 0.708029 -0.706168 0.000000 0.368649 0.946082
1.408318 -0.811798 1.145150 0.708029 -0.706168 0.000000 0.321744 0.917093
1.381519 -0.838668 1.139000 0.708029 -0.706168 0.000000 0.283797 0.910935
1.354727 -0.865532 1.145170 0.708029 -0.706168 0.000000 0.245849 0.917093
1.334519 -0.885792 1.159170 0.708029 -0.706168 0.000000 0.217233 0.931089
1.321607 -0.898739 1.174170 0.708029 -0.706137 0.000000 0.198944 0.946082
1.311022 -0.909352 1.192460 0.708029 -0.706168 0.000000 0.183951 0.964371
1.321607 -0.898739 1.174170 0.708029 -0.706168 0.000000 0.198944 0.946082
1.301143 -0.919257 1.221080 0.708029 -0.706168 0.000000 0.169955 0.992988
1.296800 -0.923611 1.259030 0.708029 -0.706168 0.000000 0.163797 1.030940
1.301154 -0.919245 1.296980 0.708029 -0.706168 0.000000 0.169955 1.068880
1.311042 -0.909332 1.325590 0.708029 -0.706168 0.000000 0.183951 1.097500
1.321633 -0.898712 1.343870 0.708029 -0.706168 0.000000 0.198944 1.115790
1.441452 -0.778577 1.174130 0.546159 0.547594 -0.633869 0.243797 1.150940
1.384808 -0.722083 1.174130 0.546159 0.547594 -0.633869 0.163797 1.150940
1.452037 -0.767963 1.192420 0.594195 0.595782 -0.540300 0.243797 1.110940
1.395394 -0.711470 1.192420 0.594195 0.595782 -0.540300 0.163797 1.110940
1.461923 -0.758051 1.221030 0.672903 0.674673 -0.303262 0.243797 1.070940
1.405280 -0.701557 1.221030 0.672903 0.674673 -0.303262 0.163797 1.070940
1.466280 -0.753682 1.258980 0.706168 0.708029 -0.000244 0.243797 1.030940
1.409637 -0.697189 1.258980 0.706168 0.708029 -0.000244 0.163797 1.030940
1.461937 -0.758037 1.296930 0.672994 0.674764 0.302805 0.243797 0.990935
1.405294 -0.701543 1.296930 0.672994 0.674764 0.302805 0.163797 0.990935
1.452058 -0.767942 1.325550 0.594287 0.595843 0.540147 0.243797 0.950935
1.395415 -0.711448 1.325550 0.594287 0.595843 0.540117 0.163797 0.950935
1.441473 -0.778556 1.343840 0.546159 0.547594 0.633869 0.243797 0.910935
1.384830 -0.722062 1.343840 0.546159 0.547594 0.633869 0.163797 0.910935
1.321607 -0.898739 1.174170 -0.447859 -0.449049 -0.773125 0.243797 1.150940
1.264964 -0.842245 1.174170 -0.447859 -0.449049 -0.773125 0.163797 1.150940
1.334519 -0.885792 1.159170 -0.381664 -0.382672 -0.841334 0.243797 1.110940
1.277876 -0.829298 1.159170 -0.381664 -0.382672 -0.841334 0.163797 1.110940
1.354727 -0.865532 1.145170 -0.214148 -0.214698 -0.952879 0.243797 1.070940
1.298083 -0.809038 1.145170 -0.214148 -0.214698 -0.952879 0.163797 1.070940
1.381519 -0.838668 1.139000 -0.000183 -0.000183 -0.999969 0.243797 1.030940
1.324876 -0.782175 1.139000 -0.000183 -0.000183 -1.000000 0.163797 1.030940
1.408318 -0.811798 1.145150 0.213843 0.214393 -0.953032 0.243797 0.990935
1.351675 -0.755305 1.145150 0.213843 0.214393 -0.953032 0.163797 0.990935
1.428529 -0.791534 1.159140 0.381329 0.382366 -0.841639 0.243797 0.950935
1.371885 -0.735040 1.159140 0.381329 0.382336 -0.841639 0.163797 0.950935
1.441452 -0.778577 1.174130 0.447462 0.448653 -0.773583 0.243797 0.910935
1.384808 -0.722083 1.174130 0.447462 0.448653 -0.773583 0.163797 0.910935
3 0 1 2
3 0 3 1
3 0 4 3
3 0 5 4
3 0 6 5
3 0 7 6
3 0 8 9
3 0 10 8
3 0 11 10
3 0 12 11
3 0 13 12
3 0 14 13
3 0 15 16
3 0 17 15
3 0 18 17
3 0 19 18
3 0 20 19
3 0 21 20
3 0 22 23
3 0 24 22
3 0 25 24
3 0 26 25
3 0 27 26
3 0 28 27
3 29 30 31
3 31 30 32
3 31 32 33
3 33 32 34
3 33 34 35
3 35 34 36
3 35 36 37
3 37 36 38
3 37 38 39
3 39 38 40
3 39 40 41
3 41 40 42
3 43 44 45
3 45 44 46
3 45 46 47
3 47 46 48
3 47 48 49
3 49 48 50
3 49 50 51
3 51 50 52
3 51 52 53
3 53 52 54
3 53 54 55
3 55 54 56
3 57 58 59
3 57 60 58
3 57 61 60
3 57 62 61
3 57 63 62
3 57 64 63
3 57 65 66
3 57 67 65
3 57 68 67
3 57 69 68
3 57 70 69
3 57 71 70
3 57 72 73
3 57 74 72
3 57 75 74
3 57 76 75
3 57 77 76
3 57 78 77
3 57 79 80
3 57 81 79
3 57 82 81
3 57 83 82
3 57 84 83
3 57 85 84
3 86 87 88
3 88 87 89
3 88 89 90
3 90 89 91
3 90 91 92
3 92 91 93
3 92 93 94
3 94 93 95
3 94 95 96
3 96 95 97
3 96 97 98
3 98 97 99
3 100 101 102
3 102 101 103
3 102 103 104
3 104 103 105
3 104 105 106
3 106 105 107
3 106 107 108
3 108 107 109
3 108 109 110
3 110 109 111
3 110 111 112
3 112 111 113
